# xmcd CD database file
#
# Track frame offsets:
#	150
#	5285
#	24252
#	44437
#	68812
#	95982
#	132430
#	152595
#	174120
#	193070
#	213542
#	229895
#	257087
#	275300
#	298570
#
# Disc length: 4227 seconds
#
# Revision: 0
# Processed by: cddbd v1.5.1PL0 Copyright (c) Steve Scherf et al.
# Submitted via: CDex 1.51
#
DISCID=d210810f
DTITLE=Metalium - Demons of Insanity
DYEAR=2005
DGENRE=Heavy Metal
TTITLE0=Intro
TTITLE1=Power of Time
TTITLE2=Demons of Insanity
TTITLE3=Cyber Horizon
TTITLE4=Ride On
TTITLE5=Endless Believer
TTITLE6=Sky is Falling
TTITLE7=Destiny
TTITLE8=Mother Earth
TTITLE9=Out of The Silence
TTITLE10=Atrocity
TTITLE11=Silence of The Night
TTITLE12=Visions of Paradise
TTITLE13=One By One
TTITLE14=Heavy Metal Crazy Night (bonus)
EXTD=YEAR: 2005
EXTT0=
EXTT1=
EXTT2=
EXTT3=
EXTT4=
EXTT5=
EXTT6=
EXTT7=
EXTT8=
EXTT9=
EXTT10=
EXTT11=
EXTT12=
EXTT13=
EXTT14=
PLAYORDER=
